<?xml version="1.0" encoding="utf-8"?>
<!-- Generator: Adobe Illustrator 24.0.2, SVG Export Plug-In . SVG Version: 6.00 Build 0)  -->
<svg version="1.1" id="Layer_1" xmlns="http://www.w3.org/2000/svg" xmlns:xlink="http://www.w3.org/1999/xlink" x="0px" y="0px"
	 viewBox="0 0 88.3 28" style="enable-background:new 0 0 88.3 28;" xml:space="preserve">
<style type="text/css">
	.st0{enable-background:new    ;}
	.st1{clip-path:url(#SVGID_2_);}
	.st2{fill:#FFFFFF;}
	.st3{fill:#424242;}
	.st4{clip-path:url(#SVGID_4_);}
	.st5{display:none;fill:#BC2820;}
</style>
<g class="st0">
	<g>
		<defs>
			<rect id="SVGID_1_" x="7" y="0" width="74.3" height="27.9"/>
		</defs>
		<clipPath id="SVGID_2_">
			<use xlink:href="#SVGID_1_"  style="overflow:visible;"/>
		</clipPath>
		<g class="st1">
			<path class="st2" d="M7,0c24.8,0,49.5,0,74.3,0c0,9.3,0,18.6,0,27.9c-24.8,0-49.5,0-74.3,0C7,18.6,7,9.3,7,0z M12.1,21.9
				c0.1,0,0.1,0.1,0.1,0.1c1.2,1.3,2.8,1.7,4.6,1.5c1.7-0.2,3-1,4.1-2.3c1.4-1.8,1.9-3.9,1.4-6.2c-0.6-3.1-3.3-5.8-6.9-5.5
				c-1.2,0.1-2.3,0.5-3.1,1.4c0,0-0.1,0.1-0.2,0.2c0-2.2,0-4.4,0-6.5c-1.3,0-2.6,0-3.9,0c0,6.2,0,12.4,0,18.6c1.3,0,2.6,0,3.9,0
				C12.1,22.7,12.1,22.3,12.1,21.9z M34.4,11C34.3,11,34.3,11,34.4,11c-1.3-1.3-2.8-1.7-4.5-1.5c-1.7,0.2-3.1,1-4.2,2.3
				c-1.7,2.1-2,4.6-1.2,7.1c0.8,2.6,3.1,4.5,5.8,4.6c1.5,0,2.9-0.4,4-1.5c0,0,0.1,0,0.1-0.1c0,0.4,0,0.8,0,1.2c1.3,0,2.6,0,4,0
				c0-4.4,0-8.8,0-13.3c-1.3,0-2.6,0-4,0C34.4,10.2,34.4,10.6,34.4,11z M73.1,23.5c3.8,0,7-2.9,7-6.9c0.1-4-3-7.2-7-7.2
				c-4.1,0-7.1,3.3-7.1,7C66.1,20.3,69.2,23.5,73.1,23.5z M63.9,23.1c0-0.1,0-0.3,0-0.4c0-2.6,0-5.1,0-7.7c0-0.6,0-1.1-0.2-1.7
				c-0.4-1.7-1.3-2.9-2.9-3.6c-0.8-0.3-1.7-0.4-2.6-0.3c-1.2,0.1-2.2,0.5-3,1.4c0,0-0.1,0.1-0.2,0.2c0-0.5,0-0.8,0-1.2
				c-1.3,0-2.6,0-3.9,0c0,4.4,0,8.8,0,13.3c1.3,0,2.6,0,3.9,0c0-0.1,0-0.2,0-0.4c0-2.1,0-4.3,0-6.4c0-0.3,0-0.7,0-1
				c0.1-1.3,0.9-2.1,2-2.2c1.4-0.2,2.8,0.6,2.8,2.3c0,2.4,0,4.9,0,7.3c0,0.1,0,0.2,0,0.3C61.3,23.1,62.6,23.1,63.9,23.1z M49.3,9.5
				c-1.8,0.1-3.2,0.8-4,2.5c0-0.7,0-1.5,0-2.2c-1.3,0-2.6,0-3.9,0c0,4.4,0,8.8,0,13.3c1.3,0,2.6,0,3.9,0c0-0.1,0-0.2,0-0.3
				c0-1.8,0-3.7,0-5.5c0-0.3,0-0.6,0.1-0.8c0.3-1.7,1.7-2.3,2.8-2.4c0.4,0,0.7,0,1.1,0C49.3,12.5,49.3,11.1,49.3,9.5z"/>
			<path class="st3" d="M12.1,21.9c0,0.4,0,0.8,0,1.2c-1.3,0-2.6,0-3.9,0c0-6.2,0-12.4,0-18.6c1.3,0,2.6,0,3.9,0c0,2.2,0,4.3,0,6.5
				c0.1-0.1,0.2-0.1,0.2-0.2c0.9-0.9,1.9-1.3,3.1-1.4c3.6-0.4,6.3,2.3,6.9,5.5c0.4,2.3,0,4.4-1.4,6.2c-1,1.3-2.4,2.1-4.1,2.3
				c-1.7,0.2-3.3-0.1-4.6-1.5C12.2,21.9,12.2,21.9,12.1,21.9z M18.5,16.5c0-0.1,0-0.3,0-0.4c0-0.1,0-0.2,0-0.3c-0.2-1.2-0.8-2-2-2.4
				c-1.2-0.4-2.4-0.3-3.4,0.6c-1,0.9-1.2,2.2-0.9,3.5c0.5,1.9,2.3,2.6,4,2.1C17.7,19.2,18.5,18.1,18.5,16.5z"/>
			<path class="st3" d="M34.4,11c0-0.4,0-0.8,0-1.2c1.3,0,2.6,0,4,0c0,4.4,0,8.8,0,13.3c-1.3,0-2.6,0-4,0c0-0.4,0-0.8,0-1.2
				c-0.1,0.1-0.1,0.1-0.1,0.1c-1.1,1.1-2.4,1.5-4,1.5c-2.7,0-5-2-5.8-4.6c-0.8-2.6-0.5-5,1.2-7.1c1.1-1.4,2.5-2.1,4.2-2.3
				C31.6,9.3,33.1,9.7,34.4,11C34.3,11,34.3,11,34.4,11z M34.4,16.5c0-0.2,0-0.4-0.1-0.7c-0.2-1.2-0.8-2.1-2-2.4
				C31.1,13,30,13.1,29,14c-1,0.9-1.1,2.2-0.8,3.4c0.5,1.9,2.3,2.6,4,2.1C33.6,19.2,34.4,18.1,34.4,16.5z"/>
			<path class="st3" d="M73.1,23.5c-3.9,0-7-3.1-7-7c0-3.8,2.9-7,7.1-7c4,0,7.1,3.1,7,7.2C80.1,20.6,76.9,23.5,73.1,23.5z
				 M76.2,16.5c0-0.2,0-0.3,0-0.5c-0.3-2.2-2.4-3.1-4.1-2.5c-1.3,0.4-2.2,1.7-2.1,3.4c0.2,2,2,3.1,3.8,2.6
				C75.3,19.2,76.2,18.1,76.2,16.5z"/>
			<path class="st3" d="M63.9,23.1c-1.3,0-2.6,0-4,0c0-0.1,0-0.2,0-0.3c0-2.4,0-4.9,0-7.3c0-1.7-1.3-2.5-2.8-2.3
				c-1.1,0.1-1.9,0.9-2,2.2c0,0.3,0,0.7,0,1c0,2.1,0,4.3,0,6.4c0,0.1,0,0.2,0,0.4c-1.3,0-2.6,0-3.9,0c0-4.4,0-8.8,0-13.3
				c1.3,0,2.6,0,3.9,0c0,0.4,0,0.8,0,1.2c0.1-0.1,0.2-0.1,0.2-0.2c0.8-0.9,1.8-1.3,3-1.4c0.9-0.1,1.8,0,2.6,0.3
				c1.6,0.7,2.5,1.9,2.9,3.6c0.1,0.6,0.2,1.1,0.2,1.7c0,2.6,0,5.1,0,7.7C63.9,22.9,63.9,23,63.9,23.1z"/>
			<path class="st3" d="M49.3,9.5c0,1.5,0,3,0,4.5c-0.4,0-0.8,0-1.1,0c-1.1,0.1-2.5,0.7-2.8,2.4c-0.1,0.3-0.1,0.6-0.1,0.8
				c0,1.8,0,3.7,0,5.5c0,0.1,0,0.2,0,0.3c-1.3,0-2.6,0-3.9,0c0-4.4,0-8.8,0-13.3c1.3,0,2.6,0,3.9,0c0,0.7,0,1.5,0,2.2
				C46.1,10.3,47.5,9.7,49.3,9.5z"/>
		</g>
	</g>
	<g>
		<defs>
			<rect id="SVGID_3_" x="70.7" y="5.9" width="5.3" height="2.6"/>
		</defs>
		<use xlink:href="#SVGID_3_"  style="overflow:visible;fill-rule:evenodd;clip-rule:evenodd;fill:#BC2820;"/>
		<clipPath id="SVGID_4_">
			<use xlink:href="#SVGID_3_"  style="overflow:visible;"/>
		</clipPath>
		<g class="st4">
			
				<image style="display:none;overflow:visible;" width="1340" height="504" xlink:href="DEC1452847ACFBB2.jpg"  transform="matrix(5.545045e-02 0 0 5.545046e-02 6.9982 0)">
			</image>
		</g>
	</g>
</g>
<rect x="17.5" y="2" class="st5" width="5.1" height="2.3"/>
</svg>
